<?xml version="1.0" encoding="UTF-8"?>
<svg width="250px" height="250px" viewBox="0 0 250 250" version="1.1" xmlns="http://www.w3.org/2000/svg" xmlns:xlink="http://www.w3.org/1999/xlink">
    <!-- Generator: Sketch 48.2 (47327) - http://www.bohemiancoding.com/sketch -->
    <title>Line</title>
    <desc>Created with Sketch.</desc>
    <defs></defs>
    <g id="Similarity-Contrast" stroke="none" stroke-width="1" fill="none" fill-rule="evenodd">
        <g id="Line" stroke="#555555" stroke-width="4">
            <path d="M15,209 L235,209" id="row3-line1" stroke-linecap="square"></path>
            <path d="M15,144.632193 C27.9122722,114.455936 38.6724991,114.455936 51.5847713,144.632193 C64.4970435,174.80845 75.2572704,174.80845 88.1695426,144.632193 C101.081815,114.455936 112.13996,115.17599 124.797355,144.993916 C137.45475,174.811842 149.599156,174.879995 161.644959,144.993916 C173.690761,115.107837 185.028476,114.104268 198.18363,144.993916 C211.338785,175.883564 221.463995,175.553021 235,144.691463" id="row2-wave1"></path>
            <path d="M15,62.6321928 C27.9122722,32.4559357 38.6724991,32.4559357 51.5847713,62.6321928 C64.4970435,92.8084499 75.2572704,92.8084499 88.1695426,62.6321928 C101.081815,32.4559357 112.13996,33.1759904 124.797355,62.993916 C137.45475,92.8118417 149.599156,92.879995 161.644959,62.993916 C173.690761,33.107837 185.028476,32.1042677 198.18363,62.993916 C211.338785,93.8835643 221.463995,93.5530207 235,62.6914625" id="row1-wave1"></path>
        </g>
    </g>
</svg>