<?xml version="1.0" encoding="UTF-8"?>
<svg width="250px" height="250px" viewBox="0 0 250 250" version="1.1" xmlns="http://www.w3.org/2000/svg" xmlns:xlink="http://www.w3.org/1999/xlink">
    <!-- Generator: Sketch 48.2 (47327) - http://www.bohemiancoding.com/sketch -->
    <title>Trees</title>
    <desc>Created with Sketch.</desc>
    <defs></defs>
    <g id="Hierarchy" stroke="none" stroke-width="1" fill="none" fill-rule="evenodd">
        <g id="Trees">
            <rect id="row3-rectangle4" fill="#555555" x="190" y="188" width="50" height="25"></rect>
            <rect id="row3-rectangle3" fill="#555555" x="130" y="188" width="50" height="25"></rect>
            <rect id="row3-rectangle2" fill="#555555" x="70" y="188" width="50" height="25"></rect>
            <rect id="row3-rectangle1" fill="#555555" x="10" y="188" width="50" height="25"></rect>
            <path d="M216.5,164.5 L216.5,199.5" id="row2-line4-vertical" stroke="#555555" stroke-width="2" stroke-linecap="square"></path>
            <path d="M155.5,164.5 L155.5,199.5" id="row2-line3-vertical" stroke="#555555" stroke-width="2" stroke-linecap="square"></path>
            <path d="M95.5,164.5 L95.5,199.5" id="row2-line2-vertical" stroke="#555555" stroke-width="2" stroke-linecap="square"></path>
            <path d="M34.5,164.5 L34.5,199.5" id="row2-line1-vertical" stroke="#555555" stroke-width="2" stroke-linecap="square"></path>
            <path d="M156,164 L216,164" id="row2-line2-horizontal" stroke="#555555" stroke-width="2" stroke-linecap="square"></path>
            <path d="M35,164 L95,164" id="row2-line1-horizontal" stroke="#555555" stroke-width="2" stroke-linecap="square"></path>
            <rect id="row2-rectangle2" fill="#555555" x="147" y="113" width="75" height="25"></rect>
            <rect id="row2-rectangle1" fill="#555555" x="28" y="113" width="75" height="25"></rect>
            <path d="M185,89 L185,163" id="row1-row2-line2-vertical" stroke="#555555" stroke-width="2" stroke-linecap="square"></path>
            <path d="M65,89 L65,163" id="row1-row2-line1-vertical" stroke="#555555" stroke-width="2" stroke-linecap="square"></path>
            <path d="M185,88 L65,88" id="row1-line1-horizontal" stroke="#555555" stroke-width="2" stroke-linecap="square"></path>
            <path d="M125,51 L125,88" id="row1-line1-vertical" stroke="#555555" stroke-width="2" stroke-linecap="square"></path>
            <rect id="row1-rectangle1" fill="#555555" x="75" y="38" width="100" height="25"></rect>
        </g>
    </g>
</svg>